<svg width="121" height="124" viewBox="0 0 121 124" fill="none" xmlns="http://www.w3.org/2000/svg">
<path d="M60.5 3C93.9132 3 121 30.0868 121 63.5C121 96.9132 93.9132 124 60.5 124C27.0868 124 0 96.9132 0 63.5C0 30.0868 27.0868 3 60.5 3ZM22 40V47H15V54H8V75H15V82H22V89H50V82H57V75H43V82H29V75H22V54H29V47H43V54H57V47H50V40H22ZM64 40V68H71V75H78V82H85V89H92V82H99V75H106V68H113V40H99V61H92V68H85V61H78V40H64Z" fill="#D9A066"/>
<path d="M60.5 0C93.9132 0 121 27.0868 121 60.5C121 93.9132 93.9132 121 60.5 121C27.0868 121 0 93.9132 0 60.5C0 27.0868 27.0868 0 60.5 0ZM22 37V44H15V51H8V72H15V79H22V86H50V79H57V72H43V79H29V72H22V51H29V44H43V51H57V44H50V37H22ZM64 37V65H71V72H78V79H85V86H92V79H99V72H106V65H113V37H99V58H92V65H85V58H78V37H64Z" fill="#DF7126"/>
</svg>
