<svg width="121" height="121" viewBox="0 0 121 121" fill="none" xmlns="http://www.w3.org/2000/svg">
<path d="M60.5 0C93.9132 0 121 27.0868 121 60.5C121 93.9132 93.9132 121 60.5 121C27.0868 121 0 93.9132 0 60.5C0 27.0868 27.0868 0 60.5 0ZM36.5596 36.8184C32.4234 36.8184 28.6887 37.7425 25.3555 39.5908C22.0222 41.4393 19.3774 44.1435 17.4229 47.7041C15.4683 51.2647 14.4912 55.6063 14.4912 60.7275C14.4913 65.8335 15.4537 70.167 17.3779 73.7275C19.3021 77.2879 21.9233 79.9997 25.2412 81.8633C28.5745 83.7118 32.3475 84.6367 36.5596 84.6367C39.7565 84.6367 42.5899 84.1513 45.0596 83.1816C47.5444 82.2119 49.6507 80.9088 51.3779 79.2725C53.1051 77.621 54.4615 75.7949 55.4463 73.7949C56.4461 71.7951 57.0443 69.7645 57.2412 67.7041L45.8779 67.6367C45.6809 68.7578 45.3247 69.7653 44.8096 70.6592C44.3096 71.5379 43.6658 72.288 42.8779 72.9092C42.1052 73.5152 41.2031 73.9767 40.1729 74.2949C39.1578 74.613 38.0294 74.7724 36.7871 74.7725C34.575 74.7725 32.6583 74.2496 31.0371 73.2041C29.4311 72.1435 28.181 70.5757 27.2871 68.5C26.4084 66.4092 25.9688 63.8183 25.9688 60.7275C25.9688 57.7579 26.4011 55.2276 27.2646 53.1367C28.1434 51.0458 29.3934 49.4469 31.0146 48.3408C32.6509 47.2349 34.598 46.6816 36.8555 46.6816C38.128 46.6817 39.2867 46.864 40.332 47.2275C41.3926 47.576 42.3093 48.0834 43.082 48.75C43.8548 49.4167 44.4766 50.2198 44.9463 51.1592C45.4159 52.0985 45.7264 53.1518 45.8779 54.3184H57.2412C56.9685 51.5306 56.2642 49.0533 55.1279 46.8867C53.9916 44.7201 52.5144 42.894 50.6963 41.4092C48.8781 39.9092 46.7718 38.7727 44.3779 38C41.984 37.2121 39.3778 36.8184 36.5596 36.8184ZM61.6562 37.4541L77.3604 84H92.3379L108.043 37.4541H95.4521L85.043 71.5449H84.6562L74.2471 37.4541H61.6562Z" fill="white"/>
</svg>
